<?xml version="1.0" encoding="UTF-8"?>
<svg id="Ebene_1" data-name="Ebene 1" xmlns="http://www.w3.org/2000/svg" viewBox="0 0 1229.24 1177">
  <defs>
    <style>
      .cls-1 {
        fill: #fff;
      }
    </style>
  </defs>
  <g>
    <g>
      <path d="M816.32,1176.68l-144.26-184.66-466.15,65.5,86.04-213.08L0,463.17l236.07-26.82L413.8,0l146.61,177,462.41-65.02,1.89.82-90.76,224.57,295.29,377.98-232,32.66-178.93,428.71c-.51.4-.83.36-1.99-.04ZM474.73,396.97l81.69-216.89L415.28,9.63l-174.55,428.59,145.35,178.14,88.65-219.38ZM927.28,332.93l89.92-215.06-456.16,64.14-80.49,213.72,446.73-62.8ZM1219.94,711.58l-291.96-373.66-222.18,31.25,290.94,373.85,223.2-31.44ZM756.18,776.73l88.74-219.89-144.85-186.88-221.61,31.17-88.78,219.72,146.06,186.92,220.44-31.05ZM529.89,808.51l-144.88-185.5-148.22-181.69-227.4,25.89,286.6,374.27,233.89-32.96ZM816.31,1168.5l176.37-422.55-143.97-184.94-86.14,213.29-86.62,214.58,140.36,179.62ZM213.84,1051.32l457.46-64.3,82.72-204.84-457.5,64.31-82.68,204.84Z"/>
      <polygon class="cls-1" points="1219.94 711.58 996.74 743.02 705.8 369.17 927.98 337.91 1219.94 711.58"/>
    </g>
    <g>
      <polygon class="cls-1" points="474.73 396.97 386.08 616.36 240.73 438.22 415.28 9.63 556.43 180.08 474.73 396.97"/>
      <polygon class="cls-1" points="927.28 332.93 480.55 395.73 561.03 182.01 1017.2 117.87 927.28 332.93"/>
    </g>
  </g>
  <g>
    <polygon class="cls-1" points="816.31 1168.5 675.95 988.88 762.56 774.3 848.7 561.01 992.68 745.95 816.31 1168.5"/>
    <g>
      <polygon class="cls-1" points="756.18 776.73 535.74 807.77 389.68 620.85 478.46 401.13 700.06 369.96 844.91 556.84 756.18 776.73"/>
      <g>
        <polygon class="cls-1" points="529.89 808.51 296 841.47 9.4 467.2 236.8 441.32 385.02 623.01 529.89 808.51"/>
        <polygon class="cls-1" points="213.84 1051.32 296.52 846.48 754.02 782.17 671.3 987.01 213.84 1051.32"/>
      </g>
    </g>
  </g>
</svg>