<svg width="1331" height="1365" viewBox="0 0 1331 1365" fill="none" xmlns="http://www.w3.org/2000/svg">
<path d="M527.607 491.842L610.164 272.719M527.607 491.842L437.703 714.366M527.607 491.842L979.912 428.272M610.164 272.719L1072.12 207.792M610.164 272.719L465.426 97.9122L288.727 531.727M1072.12 207.792L983.234 427.805L979.912 428.272M1072.12 207.792L979.912 428.272M437.703 714.366L585.463 903.488M437.703 714.366L288.727 531.727M585.463 903.488L808.768 872.103L898.672 649.579L751.985 460.306L1046.43 838.701M585.463 903.488L345.713 937.184M1046.43 838.701L1275.43 806.516L979.912 428.272M1046.43 838.701L867.847 1266.53L723.955 1082.36M723.955 1082.36L811.506 865.658M723.955 1082.36L260.758 1147.46L345.713 937.184M345.713 937.184L55.4975 558.195L288.727 531.727" stroke="white" stroke-width="5"/>
</svg>
