<?xml version="1.0" encoding="UTF-8"?>
<svg id="Ebene_1" data-name="Ebene 1" xmlns="http://www.w3.org/2000/svg" viewBox="0 0 2354.15 1833.04">
  <defs>
    <style>
      .cls-1 {
        fill: #fff;
      }
    </style>
  </defs>
  <g>
    <g>
      <g>
        <path d="M1941.23,1720.68l-144.26-184.66-466.15,65.5,86.04-213.08-291.95-381.28,236.07-26.82,177.73-436.35,146.61,177,462.41-65.02,1.89.82-90.76,224.57,295.29,377.98-232,32.66-178.93,428.71c-.51.4-.83.36-1.99-.04ZM1599.64,940.97l81.69-216.89-141.14-170.46-174.55,428.59,145.35,178.14,88.65-219.38ZM2052.18,876.93l89.92-215.06-456.16,64.14-80.49,213.72,446.73-62.8ZM2344.85,1255.57l-291.96-373.66-222.18,31.25,290.94,373.85,223.2-31.44ZM1881.09,1320.73l88.74-219.89-144.85-186.88-221.61,31.17-88.78,219.72,146.06,186.92,220.44-31.05ZM1654.8,1352.51l-144.88-185.5-148.22-181.69-227.4,25.89,286.6,374.27,233.89-32.96ZM1941.22,1712.5l176.37-422.55-143.97-184.94-86.14,213.29-86.62,214.58,140.36,179.62ZM1338.75,1595.31l457.46-64.3,82.72-204.84-457.5,64.31-82.68,204.84Z"/>
        <polygon class="cls-1" points="2344.85 1255.57 2121.65 1287.01 1830.71 913.16 2052.89 881.91 2344.85 1255.57"/>
      </g>
      <g>
        <polygon class="cls-1" points="1599.64 940.97 1510.99 1160.35 1365.64 982.21 1540.19 553.63 1681.33 724.08 1599.64 940.97"/>
        <polygon class="cls-1" points="2052.18 876.93 1605.46 939.73 1685.94 726 2142.1 661.87 2052.18 876.93"/>
      </g>
    </g>
    <g>
      <polygon class="cls-1" points="1941.22 1712.5 1800.85 1532.87 1887.47 1318.3 1973.61 1105.01 2117.58 1289.95 1941.22 1712.5"/>
      <g>
        <polygon class="cls-1" points="1881.09 1320.73 1660.65 1351.77 1514.59 1164.85 1603.37 945.12 1824.97 913.96 1969.82 1100.83 1881.09 1320.73"/>
        <g>
          <polygon class="cls-1" points="1654.8 1352.51 1420.91 1385.47 1134.31 1011.2 1361.7 985.31 1509.92 1167 1654.8 1352.51"/>
          <polygon class="cls-1" points="1338.75 1595.31 1421.43 1390.48 1878.93 1326.17 1796.21 1531.01 1338.75 1595.31"/>
        </g>
      </g>
    </g>
  </g>
  <g>
    <g>
      <g>
        <path d="M1455.54,768.23l-86.63,217.72,291.77,369.4-227.38,33.24-181.86,444.45-142.28-190.28-466.4,66.74,78.83-215.89-289.47-366.42-.25-2.05,239.68-34.96,177.33-445.66,145.27,183.82,460.41-61.85c.6.24.73.54.97,1.74ZM954.75,1456.58l-228.47,38.91-75.94,207.87,458.1-65.57,80.45-215.38-234.14,34.17ZM671.1,1098.19l-231.05,30.89,285.55,361.46,225.13-38.36-279.64-354ZM850.32,654.46l-175.28,440.61,139.1,176.05,175.96-439.83-139.77-176.83ZM1140.59,1021.97l-234.62,34.35-88.25,219.36,138.73,175.6,234.5-34.23,87.68-220.42-138.04-174.65ZM1282.21,1201.3l-87.05,218.69-82.07,219.65,137.1,183.26,178.51-436.29-146.48-185.3ZM1448.48,772.37l-453.8,60.95-87.02,217.62,227.61-33.26,228.96-33.5,84.25-211.82ZM1651.32,1351.64l-286.35-362.5-218.59,31.95,286.37,362.53,218.57-31.98Z"/>
        <polygon class="cls-1" points="850.32 654.46 990.1 831.29 814.14 1271.12 675.04 1095.07 850.32 654.46"/>
      </g>
      <g>
        <polygon class="cls-1" points="954.75 1456.58 1188.88 1422.42 1108.43 1637.8 650.33 1703.36 726.27 1495.5 954.75 1456.58"/>
        <polygon class="cls-1" points="671.1 1098.19 950.74 1452.19 725.61 1490.55 440.05 1129.08 671.1 1098.19"/>
      </g>
    </g>
    <g>
      <polygon class="cls-1" points="1448.48 772.37 1364.23 984.19 1135.27 1017.68 907.66 1050.94 994.68 833.32 1448.48 772.37"/>
      <g>
        <polygon class="cls-1" points="1140.59 1021.97 1278.63 1196.62 1190.95 1417.04 956.45 1451.27 817.72 1275.67 905.97 1056.32 1140.59 1021.97"/>
        <g>
          <polygon class="cls-1" points="1282.21 1201.3 1428.69 1386.6 1250.19 1822.89 1113.09 1639.63 1195.16 1419.98 1282.21 1201.3"/>
          <polygon class="cls-1" points="1651.32 1351.64 1432.75 1383.62 1146.38 1021.09 1364.97 989.14 1651.32 1351.64"/>
        </g>
      </g>
    </g>
  </g>
  <g>
    <g>
      <g>
        <path d="M1509.35,1176.68l-144.26-184.66-466.15,65.5,86.04-213.08-291.95-381.28,236.07-26.82L1106.82,0l146.61,177,462.41-65.02,1.89.82-90.76,224.57,295.29,377.98-232,32.66-178.93,428.71c-.51.4-.83.36-1.99-.04ZM1167.76,396.97l81.69-216.89L1108.31,9.63l-174.55,428.59,145.35,178.14,88.65-219.38ZM1620.3,332.93l89.92-215.06-456.16,64.14-80.49,213.72,446.73-62.8ZM1912.97,711.58l-291.96-373.66-222.18,31.25,290.94,373.85,223.2-31.44ZM1449.21,776.73l88.74-219.89-144.85-186.88-221.61,31.17-88.78,219.72,146.06,186.92,220.44-31.05ZM1222.92,808.51l-144.88-185.5-148.22-181.69-227.4,25.89,286.6,374.27,233.89-32.96ZM1509.34,1168.5l176.37-422.55-143.97-184.94-86.14,213.29-86.62,214.58,140.36,179.62ZM906.87,1051.32l457.46-64.3,82.72-204.84-457.5,64.31-82.68,204.84Z"/>
        <polygon class="cls-1" points="1912.97 711.58 1689.77 743.02 1398.83 369.17 1621.01 337.91 1912.97 711.58"/>
      </g>
      <g>
        <polygon class="cls-1" points="1167.76 396.97 1079.11 616.36 933.76 438.22 1108.31 9.63 1249.45 180.08 1167.76 396.97"/>
        <polygon class="cls-1" points="1620.3 332.93 1173.58 395.73 1254.06 182.01 1710.22 117.87 1620.3 332.93"/>
      </g>
    </g>
    <g>
      <polygon class="cls-1" points="1509.34 1168.5 1368.97 988.88 1455.59 774.3 1541.73 561.01 1685.7 745.95 1509.34 1168.5"/>
      <g>
        <polygon class="cls-1" points="1449.21 776.73 1228.76 807.77 1082.71 620.85 1171.49 401.13 1393.09 369.96 1537.94 556.84 1449.21 776.73"/>
        <g>
          <polygon class="cls-1" points="1222.92 808.51 989.03 841.47 702.43 467.2 929.82 441.32 1078.04 623.01 1222.92 808.51"/>
          <polygon class="cls-1" points="906.87 1051.32 989.55 846.48 1447.05 782.17 1364.33 987.01 906.87 1051.32"/>
        </g>
      </g>
    </g>
  </g>
  <g>
    <g>
      <g>
        <path d="M1023.66,224.23l-86.63,217.72,291.77,369.4-227.38,33.24-181.86,444.45-142.28-190.28-466.4,66.74,78.83-215.89L.25,583.2l-.25-2.05,239.68-34.96L417.01,100.53l145.27,183.82,460.41-61.85c.6.24.73.54.97,1.74ZM522.87,912.59l-228.47,38.91-75.94,207.87,458.1-65.57,80.45-215.38-234.14,34.17ZM239.22,554.2l-231.05,30.89,285.55,361.46,225.13-38.36-279.64-354ZM418.44,110.46l-175.28,440.61,139.1,176.05,175.96-439.83-139.77-176.83ZM708.71,477.97l-234.62,34.35-88.25,219.36,138.73,175.6,234.5-34.23,87.68-220.42-138.04-174.65ZM850.33,657.3l-87.05,218.69-82.07,219.65,137.1,183.26,178.51-436.29-146.48-185.3ZM1016.6,228.37l-453.8,60.95-87.02,217.62,227.61-33.26,228.96-33.5,84.25-211.82ZM1219.44,807.65l-286.35-362.5-218.59,31.95,286.37,362.53,218.57-31.98Z"/>
        <polygon class="cls-1" points="418.44 110.46 558.22 287.3 382.26 727.12 243.16 551.07 418.44 110.46"/>
      </g>
      <g>
        <polygon class="cls-1" points="522.87 912.59 757 878.42 676.55 1093.8 218.45 1159.37 294.39 951.5 522.87 912.59"/>
        <polygon class="cls-1" points="239.22 554.2 518.86 908.19 293.73 946.55 8.17 585.09 239.22 554.2"/>
      </g>
    </g>
    <g>
      <polygon class="cls-1" points="1016.6 228.37 932.35 440.19 703.39 473.69 475.78 506.94 562.8 289.32 1016.6 228.37"/>
      <g>
        <polygon class="cls-1" points="708.71 477.97 846.75 652.63 759.07 873.04 524.57 907.27 385.84 731.68 474.09 512.32 708.71 477.97"/>
        <g>
          <polygon class="cls-1" points="850.33 657.3 996.81 842.6 818.31 1278.89 681.21 1095.63 763.28 875.99 850.33 657.3"/>
          <polygon class="cls-1" points="1219.44 807.65 1000.87 839.62 714.5 477.09 933.09 445.14 1219.44 807.65"/>
        </g>
      </g>
    </g>
  </g>
</svg>